<svg width="40" height="40" viewBox="0 0 40 40" fill="none" xmlns="http://www.w3.org/2000/svg">
<path d="M14.0463 31.3584L8.07882 34.6135C7.72864 34.8044 7.41392 35.0392 7.12109 35.295C10.6003 38.2286 15.0916 39.9984 19.9987 39.9984C24.8696 39.9984 29.3322 38.255 32.8017 35.3614C32.4817 35.0912 32.1345 34.8482 31.7496 34.6565L25.3594 31.4618C24.5338 31.049 24.0123 30.2052 24.0123 29.2822V26.7751C24.1919 26.5705 24.3972 26.3079 24.6168 25.9977C25.4877 24.7675 26.1466 23.4143 26.6032 21.9947C27.4228 21.7419 28.0266 20.9849 28.0266 20.0853V17.4091C28.0266 16.8204 27.7647 16.2944 27.3579 15.9261V12.0574C27.3579 12.0574 28.1526 6.03711 19.9995 6.03711C11.8463 6.03711 12.6411 12.0574 12.6411 12.0574V15.9261C12.2335 16.2944 11.9724 16.8204 11.9724 17.4091V20.0853C11.9724 20.7902 12.3429 21.4106 12.8977 21.7691C13.5663 24.68 15.3173 26.7751 15.3173 26.7751V29.2203C15.3165 30.1109 14.829 30.9313 14.0463 31.3584Z" fill="#C1C7D0"/>
<path d="M20.3417 0.00297821C9.298 -0.1857 0.191658 8.61423 0.00298018 19.6579C-0.104189 25.9198 2.68673 31.5476 7.13047 35.2903C7.42104 35.0367 7.73273 34.8042 8.07915 34.6156L14.0466 31.3605C14.8293 30.9333 15.3168 30.1129 15.3168 29.2209V26.7756C15.3168 26.7756 13.5651 24.6805 12.8972 21.7696C12.3433 21.4111 11.9719 20.7915 11.9719 20.0858V17.4096C11.9719 16.821 12.2338 16.2949 12.6406 15.9266V12.058C12.6406 12.058 11.8459 6.03765 19.9991 6.03765C28.1522 6.03765 27.3575 12.058 27.3575 12.058V15.9266C27.765 16.2949 28.0262 16.821 28.0262 17.4096V20.0858C28.0262 20.9855 27.4224 21.7424 26.6028 21.9953C26.1462 23.4149 25.4873 24.7681 24.6164 25.9983C24.3968 26.3084 24.1915 26.5711 24.0119 26.7756V29.2828C24.0119 30.2058 24.5334 31.0503 25.359 31.4624L31.7492 34.6571C32.1326 34.8488 32.479 35.091 32.7982 35.3605C37.1076 31.7665 39.8917 26.393 39.9951 20.3417C40.1853 9.298 31.3861 0.191656 20.3417 0.00297821Z" fill="#ECF0F1"/>
</svg>
