<svg width="16" height="4" viewBox="0 0 16 4" fill="none" xmlns="http://www.w3.org/2000/svg">
<path fill-rule="evenodd" clip-rule="evenodd" d="M1.60001 3.20001C2.48367 3.20001 3.20002 2.48367 3.20002 1.60001C3.20002 0.716347 2.48367 0 1.60001 0C0.716349 0 0 0.716347 0 1.60001C0 2.48367 0.716349 3.20001 1.60001 3.20001ZM8.0004 3.20001C8.88406 3.20001 9.6004 2.48367 9.6004 1.60001C9.6004 0.716347 8.88406 0 8.0004 0C7.11674 0 6.40039 0.716347 6.40039 1.60001C6.40039 2.48367 7.11674 3.20001 8.0004 3.20001ZM16.0008 1.60001C16.0008 2.48367 15.2845 3.20001 14.4008 3.20001C13.5171 3.20001 12.8008 2.48367 12.8008 1.60001C12.8008 0.716347 13.5171 0 14.4008 0C15.2845 0 16.0008 0.716347 16.0008 1.60001Z" fill="#172B4D"/>
</svg>
