<svg width="92" height="80" viewBox="0 0 92 80" fill="none" xmlns="http://www.w3.org/2000/svg">
<path d="M45.894 79.9995C71.2406 79.9995 91.7881 78.7999 91.7881 77.3201C91.7881 75.8403 71.2406 74.6406 45.894 74.6406C20.5475 74.6406 0 75.8403 0 77.3201C0 78.7999 20.5475 79.9995 45.894 79.9995Z" fill="#F5F5F5"/>
<path d="M56.0373 2.81055H12.2949L15.694 62.3812H59.434L56.0373 2.81055Z" fill="#263238"/>
<path d="M56.887 2.81055H13.1445L16.5436 62.3812H60.286L56.887 2.81055Z" fill="#F0653A"/>
<path opacity="0.5" d="M53.8736 4.8125H15.1445L17.921 58.7355H57.6561L53.8736 4.8125Z" fill="black"/>
<path d="M15.1445 4.8125C18.0228 22.7876 16.0487 40.7627 18.9318 58.7355H58.6621C55.7838 40.7627 57.7579 22.7876 54.8749 4.8125H15.1445Z" fill="white"/>
<g opacity="0.3">
<path opacity="0.3" d="M23.2696 14.2715C24.147 14.2785 24.9882 14.622 25.6198 15.2311C26.2514 15.8402 26.6251 16.6685 26.6639 17.5451C26.6816 17.9668 26.6132 18.3876 26.4631 18.782C26.3129 19.1765 26.0841 19.5362 25.7904 19.8393C25.4968 20.1425 25.1446 20.3827 24.7551 20.5454C24.3657 20.708 23.9472 20.7898 23.5252 20.7855C22.6532 20.7783 21.8174 20.4358 21.1912 19.8289C20.565 19.2221 20.1963 18.3975 20.1617 17.5261C20.1434 17.1057 20.2101 16.6859 20.3578 16.2918C20.5054 15.8978 20.7309 15.5375 21.0209 15.2325C21.3118 14.9303 21.6612 14.6905 22.0478 14.5277C22.4344 14.3649 22.8501 14.2826 23.2696 14.2857V14.2715ZM23.2459 13.6016C22.7357 13.5984 22.2302 13.6993 21.7603 13.8982C21.2905 14.097 20.8661 14.3896 20.5131 14.758C20.1602 15.1265 19.8861 15.5631 19.7077 16.041C19.5292 16.519 19.4501 17.0284 19.4753 17.538C19.5166 18.59 19.9613 19.5857 20.7171 20.3187C21.4729 21.0516 22.4819 21.4654 23.5347 21.4743C24.0472 21.4786 24.5553 21.3787 25.0281 21.1809C25.5009 20.983 25.9286 20.6912 26.2854 20.3232C26.6421 19.9552 26.9204 19.5185 27.1035 19.0398C27.2865 18.5611 27.3705 18.0501 27.3503 17.538C27.2995 16.4814 26.8456 15.4845 26.0822 14.7523C25.3187 14.0201 24.3037 13.6083 23.2459 13.6016Z" fill="#F0653A"/>
</g>
<path d="M45.2383 43.797H32.6931C32.5992 43.7954 32.5061 43.8138 32.4199 43.851C32.3338 43.8883 32.2565 43.9434 32.1934 44.0129C32.1302 44.0823 32.0826 44.1644 32.0536 44.2537C32.0247 44.343 32.0151 44.4374 32.0256 44.5307C32.0484 44.7303 32.1428 44.9148 32.2912 45.0501C32.4396 45.1855 32.6319 45.2625 32.8327 45.2669H45.3779C45.4718 45.2686 45.565 45.2501 45.6512 45.2127C45.7373 45.1753 45.8144 45.1198 45.8773 45.05C45.9401 44.9802 45.9872 44.8977 46.0154 44.8081C46.0436 44.7186 46.0522 44.6239 46.0407 44.5307C46.0184 44.332 45.9248 44.1482 45.7772 44.0132C45.6297 43.8783 45.4382 43.8015 45.2383 43.797Z" fill="#E0E0E0"/>
<path d="M51.9472 40.7111H32.4383C32.3439 40.7093 32.2501 40.7275 32.1633 40.7645C32.0764 40.8015 31.9983 40.8564 31.9342 40.9257C31.87 40.995 31.8213 41.0771 31.791 41.1665C31.7608 41.256 31.7499 41.3508 31.7589 41.4448C31.7759 41.6437 31.8663 41.8292 32.0124 41.9652C32.1585 42.1013 32.3499 42.1782 32.5495 42.181H52.049C52.1435 42.1837 52.2376 42.1663 52.325 42.1301C52.4123 42.0938 52.491 42.0395 52.5559 41.9706C52.6207 41.9017 52.6703 41.8199 52.7012 41.7305C52.7321 41.6411 52.7438 41.5462 52.7354 41.4519C52.7201 41.2524 52.6307 41.0658 52.4849 40.9287C52.3391 40.7916 52.1473 40.714 51.9472 40.7111Z" fill="#E0E0E0"/>
<g opacity="0.3">
<path opacity="0.3" d="M23.6679 27.0127C24.5389 27.0189 25.3737 27.3615 25.9979 27.969C26.6221 28.5764 26.9873 29.4016 27.0172 30.2721C27.0332 30.6934 26.9641 31.1137 26.814 31.5078C26.6639 31.9019 26.436 32.2617 26.1438 32.5657C25.8514 32.8685 25.5004 33.1087 25.1122 33.2714C24.7239 33.4342 24.3066 33.5162 23.8857 33.5125C23.0126 33.5065 22.1754 33.1646 21.5478 32.5577C20.9201 31.9508 20.5503 31.1255 20.5151 30.2531C20.5007 29.8311 20.5718 29.4105 20.724 29.0166C20.8763 28.6228 21.1065 28.2637 21.401 27.9611C21.6955 27.6584 22.0481 27.4184 22.4376 27.2554C22.8272 27.0924 23.2456 27.0099 23.6679 27.0127ZM23.6679 26.3262C23.155 26.3231 22.6468 26.4235 22.1737 26.6216C21.7006 26.8197 21.2724 27.1112 20.9147 27.4788C20.5571 27.8465 20.2774 28.2825 20.0924 28.7609C19.9074 29.2392 19.8209 29.75 19.8381 30.2626C19.8801 31.3175 20.3272 32.3155 21.0864 33.0492C21.8456 33.7828 22.8584 34.1954 23.9141 34.2013C24.4254 34.2033 24.9319 34.1017 25.4029 33.9027C25.874 33.7037 26.2998 33.4114 26.6548 33.0433C27.0098 32.6753 27.2866 32.2391 27.4685 31.7612C27.6504 31.2833 27.7336 30.7735 27.7131 30.2626C27.6777 29.2111 27.2368 28.214 26.4827 27.4803C25.7287 26.7465 24.72 26.333 23.6679 26.3262Z" fill="#F0653A"/>
</g>
<path d="M38.2719 16.7141H31.5614C31.3642 16.7124 31.1752 16.6351 31.0334 16.4981C30.8915 16.3611 30.8077 16.1749 30.7992 15.9779C30.796 15.8827 30.8121 15.7878 30.8463 15.6989C30.8806 15.61 30.9324 15.5289 30.9987 15.4604C31.0649 15.392 31.1443 15.3375 31.232 15.3004C31.3197 15.2632 31.414 15.2441 31.5093 15.2441H38.2174C38.4147 15.2457 38.6039 15.3225 38.7465 15.4589C38.889 15.5953 38.9741 15.7809 38.9844 15.9779C38.9879 16.0735 38.972 16.1689 38.9378 16.2582C38.9035 16.3476 38.8515 16.4291 38.785 16.4978C38.7184 16.5666 38.6387 16.6212 38.5505 16.6583C38.4623 16.6955 38.3676 16.7144 38.2719 16.7141Z" fill="#E0E0E0"/>
<path d="M46.0186 16.7141H41.4739C41.2765 16.7124 41.0872 16.6352 40.945 16.4983C40.8028 16.3614 40.7185 16.1751 40.7094 15.9779C40.7062 15.8827 40.7222 15.7878 40.7565 15.6989C40.7907 15.61 40.8425 15.5289 40.9088 15.4604C40.9751 15.392 41.0544 15.3375 41.1422 15.3004C41.2299 15.2632 41.3242 15.2441 41.4195 15.2441H45.9665C46.1635 15.2457 46.3525 15.3226 46.4947 15.459C46.6368 15.5955 46.7214 15.7811 46.7311 15.9779C46.7346 16.0735 46.7187 16.1689 46.6845 16.2582C46.6502 16.3476 46.5982 16.4291 46.5317 16.4978C46.4651 16.5666 46.3854 16.6212 46.2972 16.6583C46.209 16.6955 46.1143 16.7144 46.0186 16.7141Z" fill="#E0E0E0"/>
<path d="M49.6814 19.8019H31.6684C31.4713 19.8009 31.2822 19.7237 31.1406 19.5865C30.999 19.4493 30.9159 19.2628 30.9086 19.0658C30.9054 18.9706 30.9214 18.8757 30.9557 18.7868C30.99 18.6979 31.0418 18.6168 31.108 18.5483C31.1743 18.4798 31.2536 18.4254 31.3414 18.3883C31.4291 18.3511 31.5234 18.332 31.6187 18.332H49.6293C49.8258 18.3331 50.0143 18.41 50.1554 18.5468C50.2966 18.6835 50.3794 18.8694 50.3868 19.0658C50.3902 19.1608 50.3746 19.2556 50.3408 19.3445C50.307 19.4333 50.2556 19.5145 50.1899 19.5831C50.1241 19.6518 50.0452 19.7065 49.9578 19.7441C49.8705 19.7817 49.7765 19.8014 49.6814 19.8019Z" fill="#E0E0E0"/>
<g opacity="0.3">
<path opacity="0.3" d="M24.1819 39.7375C25.0649 39.7548 25.9105 40.0971 26.5568 40.6989C27.2032 41.3007 27.6049 42.1198 27.6851 42.9992C27.7276 43.4113 27.6841 43.8277 27.5574 44.2221C27.4307 44.6165 27.2235 44.9803 26.949 45.2905C26.6722 45.5954 26.3334 45.8375 25.9554 46.0008C25.5774 46.1641 25.1688 46.2448 24.7571 46.2373C23.8665 46.2229 23.0118 45.8838 22.3536 45.2836C21.6955 44.6834 21.2792 43.8635 21.1829 42.9779C21.1423 42.5628 21.1901 42.1438 21.3231 41.7485C21.4561 41.3531 21.6713 40.9905 21.9546 40.6843C22.2396 40.3803 22.5849 40.1391 22.9684 39.976C23.3519 39.813 23.7652 39.7318 24.1819 39.7375ZM24.1488 39.0534C23.6419 39.0435 23.1386 39.1408 22.6719 39.339C22.2052 39.5372 21.7857 39.8318 21.4409 40.2035C21.096 40.5751 20.8336 41.0155 20.6709 41.4957C20.5081 41.9759 20.4487 42.485 20.4965 42.9898C20.6788 45.1627 22.6505 46.9261 24.8234 46.9261C26.9963 46.9261 28.5538 45.1627 28.3739 42.9898C28.28 41.9281 27.7968 40.9388 27.0172 40.212C26.2376 39.4853 25.2168 39.0727 24.1512 39.0534H24.1488Z" fill="#F0653A"/>
</g>
<path d="M52.757 31.0664H31.9722C31.8769 31.0664 31.7826 31.0855 31.6949 31.1227C31.6072 31.1598 31.5278 31.2143 31.4615 31.2827C31.3953 31.3512 31.3435 31.4323 31.3092 31.5212C31.275 31.6101 31.2589 31.705 31.2621 31.8002C31.2706 31.9966 31.3542 32.1822 31.4956 32.3188C31.6369 32.4553 31.8254 32.5324 32.0219 32.534H52.8161C52.9114 32.534 53.0057 32.5149 53.0935 32.4778C53.1812 32.4406 53.2606 32.3862 53.3268 32.3177C53.3931 32.2492 53.4449 32.1681 53.4791 32.0792C53.5134 31.9903 53.5294 31.8954 53.5262 31.8002C53.5189 31.6018 53.4343 31.4141 53.2907 31.2771C53.147 31.14 52.9555 31.0645 52.757 31.0664Z" fill="#E0E0E0"/>
<path d="M47.8333 27.9766H31.8844C31.7889 27.9765 31.6944 27.9957 31.6065 28.033C31.5186 28.0703 31.4391 28.1249 31.3729 28.1937C31.3066 28.2624 31.2548 28.3438 31.2207 28.433C31.1866 28.5221 31.1708 28.6173 31.1743 28.7127C31.181 28.9089 31.2634 29.0948 31.4041 29.2316C31.5449 29.3684 31.7331 29.4454 31.9294 29.4465H47.8807C47.976 29.4465 48.0703 29.4274 48.158 29.3903C48.2457 29.3531 48.3251 29.2987 48.3914 29.2302C48.4576 29.1617 48.5094 29.0806 48.5437 28.9917C48.5779 28.9028 48.594 28.8079 48.5908 28.7127C48.5852 28.5155 48.503 28.3283 48.3615 28.1908C48.2201 28.0534 48.0306 27.9765 47.8333 27.9766Z" fill="#E0E0E0"/>
<path d="M23.6288 19.8463L23.3495 19.3871C22.7364 18.3858 21.4559 17.4935 21.0156 17.2307L21.347 16.6437C22.2164 17.17 22.991 17.839 23.6383 18.6225C24.6443 17.271 26.1142 15.8815 28.1048 14.3809L28.5333 14.9347C26.4029 16.5372 24.8928 18.0119 23.9247 19.4155C23.8276 19.5599 23.7282 19.7043 23.6288 19.8463Z" fill="#F0653A"/>
<path d="M23.9839 32.5791C23.8915 32.4253 23.7969 32.2714 23.7022 32.1199C23.0868 31.1187 21.8086 30.2263 21.373 29.9612L21.7092 29.3742C22.5741 29.9019 23.3446 30.5708 23.9886 31.353C24.9969 30.0038 26.4787 28.612 28.5001 27.1113L28.9191 27.6652C26.7604 29.2677 25.2407 30.7423 24.2774 32.146L23.9839 32.5791Z" fill="#F0653A"/>
<path d="M24.7928 45.3443L24.4804 44.8851C23.7987 43.8839 22.4779 42.9915 22.0234 42.7288L22.3311 42.1418C23.2256 42.6718 24.0315 43.3387 24.7195 44.1182C25.6473 42.769 27.0581 41.3772 29.018 39.8789L29.4606 40.4328C27.3682 42.0353 25.9314 43.5099 25.0579 44.9135L24.7928 45.3443Z" fill="#F0653A"/>
<path d="M47.4914 4.96599C46.7529 3.41087 45.0297 2.38121 43.1716 2.38121H39.3844C39.1243 2.3927 38.8659 2.33526 38.6352 2.21472C38.4045 2.09417 38.2098 1.91481 38.0707 1.69478C37.5428 0.705369 36.2836 0 34.8539 0C33.4242 0 32.2502 0.710103 31.8336 1.69478C31.6608 2.11138 31.1661 2.38121 30.598 2.38121H26.8108C24.9527 2.38121 23.3455 3.41087 22.7869 4.96599C22.7662 5.02028 22.7581 5.07855 22.7632 5.13642C22.7693 5.25782 22.8218 5.37224 22.91 5.45596C22.9981 5.53969 23.1151 5.5863 23.2366 5.58615H47.115C47.188 5.58632 47.2598 5.56764 47.3234 5.53192C47.387 5.4962 47.4404 5.44465 47.4782 5.38227C47.5161 5.31989 47.5372 5.2488 47.5395 5.17586C47.5418 5.10293 47.5252 5.03064 47.4914 4.96599ZM35.0078 2.80964C34.7253 2.80381 34.4552 2.69248 34.2506 2.49756C34.046 2.30263 33.9218 2.03822 33.9024 1.75632C33.8929 1.62056 33.9116 1.4843 33.9574 1.35614C34.0033 1.22799 34.0751 1.11072 34.1686 1.01174C34.262 0.912765 34.3749 0.834229 34.5002 0.78109C34.6255 0.72795 34.7604 0.701363 34.8965 0.703003C35.1808 0.70594 35.4536 0.816041 35.6603 1.01131C35.8669 1.20658 35.9923 1.47263 36.0114 1.75632C36.021 1.8929 36.002 2.02997 35.9556 2.15878C35.9092 2.2876 35.8365 2.40533 35.742 2.50445C35.6476 2.60357 35.5335 2.6819 35.4071 2.73445C35.2806 2.787 35.1446 2.81261 35.0078 2.80964Z" fill="#263238"/>
<path d="M72.0284 75.6334C71.8432 75.6562 71.6561 75.6099 71.5029 75.5032C71.4828 75.4782 71.4704 75.4478 71.4675 75.4158C71.4645 75.3838 71.4711 75.3516 71.4863 75.3234C71.4977 75.299 71.5145 75.2776 71.5354 75.2608C71.5563 75.2439 71.5808 75.2322 71.6071 75.2263C71.8864 75.1482 72.5326 75.4938 72.5539 75.5104C72.5619 75.5139 72.5686 75.52 72.5729 75.5277C72.5772 75.5354 72.5788 75.5442 72.5775 75.553C72.5772 75.5609 72.5742 75.5684 72.569 75.5744C72.5639 75.5804 72.5569 75.5845 72.5491 75.5861C72.3772 75.6167 72.203 75.6325 72.0284 75.6334ZM71.7159 75.2973C71.69 75.2934 71.6637 75.2934 71.6378 75.2973C71.6217 75.3003 71.6064 75.307 71.5933 75.3169C71.5802 75.3267 71.5695 75.3395 71.5621 75.3541C71.5384 75.4062 71.5621 75.4322 71.5621 75.4464C71.6568 75.5577 72.097 75.5601 72.4142 75.5151C72.1964 75.4012 71.9599 75.3274 71.7159 75.2973Z" fill="#F0653A"/>
<path d="M72.5518 75.5855H72.5352C72.3151 75.4908 71.8559 75.1121 71.8654 74.918C71.8654 74.8706 71.8938 74.8138 72.0074 74.802C72.0925 74.7947 72.1771 74.8201 72.2441 74.873C72.4211 75.0585 72.5411 75.2911 72.5897 75.5429C72.5926 75.5488 72.5941 75.5552 72.5941 75.5618C72.5941 75.5684 72.5926 75.5749 72.5897 75.5807C72.5843 75.5846 72.578 75.5871 72.5713 75.5879C72.5647 75.5887 72.558 75.5879 72.5518 75.5855ZM72.0476 74.8754H72.024C71.9506 74.8754 71.9482 74.9109 71.9482 74.9203C71.9482 75.0387 72.2583 75.3346 72.4879 75.4624C72.443 75.2603 72.3421 75.0749 72.1968 74.9274C72.1539 74.8952 72.1013 74.8785 72.0476 74.8801V74.8754Z" fill="#F0653A"/>
<path d="M74.458 75.5462H72.7182L72.0957 71.5176H73.8355L74.458 75.5462Z" fill="#FFC3BD"/>
<path d="M72.7056 75.3457H74.5992C74.6349 75.3467 74.6695 75.3585 74.6982 75.3797C74.727 75.4008 74.7486 75.4303 74.7602 75.4641L75.2762 77.0097C75.2871 77.0443 75.2899 77.081 75.2844 77.1169C75.2789 77.1528 75.2652 77.1869 75.2444 77.2167C75.2236 77.2464 75.1962 77.271 75.1643 77.2885C75.1325 77.3059 75.0971 77.3158 75.0608 77.3174C74.3744 77.3174 73.3802 77.2677 72.5186 77.2677C71.5126 77.2677 71.6026 77.3221 70.4215 77.3221C69.7114 77.3221 69.4297 76.6002 69.7114 76.5339C71.0392 76.2381 71.1931 76.2049 72.2867 75.4806C72.4092 75.3937 72.5554 75.3466 72.7056 75.3457Z" fill="#263238"/>
<path opacity="0.2" d="M72.0957 71.5195L72.4176 73.5954H74.1574L73.8355 71.5195H72.0957Z" fill="black"/>
<path d="M74.2597 32.1621L73.0762 33.3575L74.8893 33.9989C74.8893 33.9989 75.5994 33.0237 75.1 32.3562L74.2597 32.1621Z" fill="#FFC3BD"/>
<path d="M72.6777 35.0266L74.4885 35.2917L74.8933 33.9969L73.0801 33.3555L72.6777 35.0266Z" fill="#FFC3BD"/>
<path d="M75.0491 17.4414C75.203 17.7728 75.3261 18.0545 75.4492 18.3622C75.5723 18.6699 75.6859 18.9658 75.8042 19.2687C76.0291 19.8771 76.2303 20.4972 76.4173 21.1245C76.6076 21.7591 76.7656 22.403 76.8907 23.0536L76.9806 23.5507L77.054 24.0572C77.08 24.2253 77.0966 24.4004 77.1108 24.5732C77.125 24.746 77.1487 24.9022 77.1487 25.12V25.4277V25.6999L77.1345 25.9674L77.1084 26.2207C77.0777 26.5615 77.0327 26.8811 76.9901 27.2053C76.8954 27.8444 76.7865 28.4693 76.6658 29.099C76.4149 30.3369 76.1403 31.5464 75.809 32.7655L73.6526 32.3394C73.7899 31.137 73.9319 29.9156 74.0455 28.7131C74.1 28.1119 74.1591 27.513 74.1923 26.926C74.2065 26.6373 74.2231 26.3437 74.2231 26.0668V25.8585V25.6668V25.4751L74.2065 25.3188C74.1957 25.1941 74.1783 25.0701 74.1544 24.9472C74.1331 24.8147 74.1142 24.6821 74.0834 24.5472L73.9958 24.1424L73.894 23.7353C73.7473 23.1909 73.5816 22.6441 73.3922 22.0973C73.2029 21.5505 72.9922 21.0061 72.7697 20.4664C72.6608 20.1942 72.5472 19.9244 72.4289 19.6593C72.3105 19.3942 72.1922 19.1173 72.0762 18.8877L75.0491 17.4414Z" fill="#263238"/>
<path d="M66.877 31.3145C66.877 31.3145 67.1657 44.6265 67.9468 49.9287C68.7611 55.4438 71.7341 73.194 71.7341 73.194H74.6786C74.6786 73.194 73.6229 56.3006 73.2868 50.8731C72.9199 44.9556 73.0004 31.3145 73.0004 31.3145H66.877Z" fill="#F0653A"/>
<path d="M71.0259 72.0195C71.0117 72.0195 71.3288 73.2433 71.3288 73.2433H74.9125L74.8864 72.1521L71.0259 72.0195Z" fill="#263238"/>
<path d="M66.2118 9.73308C66.2208 9.58563 66.1499 9.46129 66.0534 9.45534C65.9568 9.4494 65.8712 9.56411 65.8621 9.71155C65.853 9.859 65.924 9.98333 66.0205 9.98928C66.1171 9.99522 66.2027 9.88052 66.2118 9.73308Z" fill="#263238"/>
<path d="M66.1406 9.98828C65.9486 10.4395 65.697 10.8631 65.3926 11.2475C65.492 11.3197 65.6061 11.3691 65.7269 11.392C65.8476 11.4149 65.9719 11.4108 66.0908 11.3801L66.1406 9.98828Z" fill="#ED847E"/>
<path d="M66.7647 8.90421C66.7463 8.90425 66.7284 8.89935 66.7126 8.89001C66.6279 8.82337 66.5283 8.77823 66.4224 8.75845C66.3165 8.73866 66.2073 8.74482 66.1043 8.7764C66.0937 8.78057 66.0824 8.78259 66.0711 8.78234C66.0597 8.78209 66.0485 8.77958 66.0382 8.77495C66.0278 8.77032 66.0185 8.76366 66.0107 8.75538C66.003 8.74709 65.997 8.73733 65.993 8.72669C65.9893 8.71581 65.9877 8.7043 65.9885 8.69282C65.9892 8.68134 65.9921 8.67012 65.9972 8.65979C66.0022 8.64946 66.0093 8.64022 66.0179 8.63261C66.0265 8.625 66.0366 8.61917 66.0475 8.61544C66.1772 8.57324 66.3152 8.56325 66.4497 8.58635C66.5841 8.60944 66.7109 8.66492 66.8191 8.74799C66.837 8.76202 66.8487 8.78247 66.8518 8.805C66.8549 8.82752 66.8491 8.85037 66.8357 8.86871C66.8273 8.87967 66.8166 8.88856 66.8043 8.89472C66.792 8.90088 66.7784 8.90412 66.7647 8.90421Z" fill="#263238"/>
<path d="M70.8172 11.3477C70.5237 12.6211 70.1923 14.9526 71.0539 15.8C71.0539 15.8 70.661 17.09 68.2964 17.09C65.6926 17.09 67.101 15.8 67.101 15.8C68.5212 15.4615 68.5331 14.4106 68.32 13.4212L70.8172 11.3477Z" fill="#FFC3BD"/>
<path d="M71.9693 16.398C72.225 15.8796 72.5066 15.2831 71.9693 15.0985C71.3823 14.8925 68.1371 14.6842 66.9986 15.0677C66.6944 15.1452 66.4335 15.3404 66.2733 15.6103C66.113 15.8802 66.0666 16.2027 66.1441 16.5068L71.9693 16.398Z" fill="#F0653A"/>
<path d="M74.4602 16.2984C75.9586 16.9896 76.7207 22.2301 76.7207 22.2301L73.7028 23.177C73.1637 21.7904 72.7262 20.3664 72.3938 18.9163C71.9299 16.7292 72.9264 15.593 74.4602 16.2984Z" fill="#263238"/>
<path d="M55.9154 24.4555L54.5236 23.2578L53.2715 25.0804C53.2715 25.0804 54.3958 25.9822 55.6385 25.613L55.9154 24.4555Z" fill="#FFC3BD"/>
<path d="M52.6859 22.6758L52.4941 24.4771L53.2682 25.0783L54.5203 23.2557L52.6859 22.6758Z" fill="#FFC3BD"/>
<path d="M71.1369 9.4073C70.9617 11.2157 70.9499 12.2809 70.003 13.2087C69.6981 13.5108 69.3167 13.7243 68.8998 13.8263C68.4828 13.9283 68.046 13.915 67.636 13.7878C67.2261 13.6606 66.8584 13.4244 66.5724 13.1043C66.2863 12.7842 66.0927 12.3924 66.0123 11.9708C65.6809 10.347 66.0123 7.66281 67.8183 6.94324C68.2028 6.77747 68.624 6.71567 69.0399 6.76404C69.4558 6.81241 69.8516 6.96925 70.1877 7.21884C70.5239 7.46843 70.7885 7.80199 70.9551 8.18609C71.1217 8.57019 71.1843 8.99134 71.1369 9.4073Z" fill="#FFC3BD"/>
<path d="M67.4347 9.98928C67.2761 8.7395 67.3022 8.2661 67.9697 7.98916C67.2761 7.85187 66.6749 7.83293 66.3885 7.42817C66.1021 7.02341 66.0335 5.98903 67.4253 5.51562C67.2974 5.75233 67.7022 6.24467 68.9828 5.79967C70.2633 5.35467 72.1285 5.30733 72.2966 6.60919C72.9736 6.37248 74.1074 8.46256 72.77 9.98928C71.6551 11.2675 70.9119 12.1504 70.6917 12.8297C70.6814 12.8615 70.6645 12.8908 70.6421 12.9156C70.6196 12.9404 70.5922 12.9602 70.5615 12.9736C70.5309 12.987 70.4977 12.9938 70.4643 12.9935C70.4308 12.9931 70.3978 12.9857 70.3675 12.9717C69.9059 12.7563 69.0798 12.9409 68.7106 13.0404C68.6586 13.0538 68.6035 13.0492 68.5545 13.0273C68.5054 13.0054 68.4653 12.9674 68.4407 12.9196C68.2016 12.4273 67.5555 11.0213 67.4347 9.98928Z" fill="#263238"/>
<path d="M72.0449 6.76692C72.0449 6.76692 72.5941 5.99291 73.6474 6.56809C73.1058 6.54285 72.5639 6.61009 72.0449 6.76692Z" fill="#263238"/>
<path d="M72.1328 6.93217C72.1328 6.93217 72.8974 6.45877 72.3009 5.56641C72.3374 6.02833 72.2803 6.49289 72.1328 6.93217Z" fill="#263238"/>
<path d="M68.3188 10.0404C68.2357 10.4879 68.0137 10.8979 67.6844 11.2121C67.2465 11.6263 66.8678 11.3328 66.8559 10.8002C66.8441 10.3268 67.0571 9.52678 67.566 9.31375C68.075 9.10072 68.4087 9.50548 68.3188 10.0404Z" fill="#FFC3BD"/>
<path opacity="0.3" d="M67.1211 38.7109C67.2915 42.6828 67.559 47.2937 67.9472 49.9282C68.0963 50.9318 68.3141 52.3378 68.5744 53.9687C69.6207 48.2595 70.2455 40.9028 67.1211 38.7109Z" fill="black"/>
<path d="M65.8172 75.6334C65.5947 75.6334 65.3793 75.6027 65.3107 75.5032C65.2928 75.4767 65.2832 75.4454 65.2832 75.4133C65.2832 75.3813 65.2928 75.3499 65.3107 75.3234C65.3424 75.2758 65.3904 75.2413 65.4456 75.2263C65.7367 75.1482 66.3332 75.4938 66.3593 75.5103C66.3666 75.5144 66.3723 75.5208 66.3753 75.5286C66.3784 75.5364 66.3785 75.545 66.3758 75.553C66.3742 75.5611 66.3701 75.5686 66.3642 75.5745C66.3583 75.5804 66.3509 75.5844 66.3427 75.5861C66.1692 75.6164 65.9934 75.6322 65.8172 75.6334ZM65.5545 75.2973C65.5278 75.2934 65.5007 75.2934 65.474 75.2973C65.457 75.3006 65.4409 75.3073 65.4266 75.3171C65.4124 75.3268 65.4003 75.3395 65.3912 75.3541C65.3604 75.4062 65.3699 75.4322 65.3793 75.4464C65.4574 75.5577 65.8953 75.5601 66.222 75.5151C66.0159 75.3994 65.7891 75.3254 65.5545 75.2973Z" fill="#F0653A"/>
<path d="M66.3437 75.5866H66.3271C66.1212 75.492 65.7165 75.1132 65.7567 74.9192C65.7567 74.8718 65.7993 74.815 65.9129 74.8032C65.9551 74.7979 65.998 74.8014 66.0388 74.8137C66.0795 74.8259 66.1173 74.8465 66.1496 74.8742C66.365 75.0564 66.3863 75.5251 66.3863 75.544C66.3861 75.5514 66.3844 75.5585 66.3811 75.5651C66.3778 75.5716 66.3731 75.5774 66.3674 75.5819C66.3601 75.5856 66.3519 75.5873 66.3437 75.5866ZM65.9437 74.8765H65.92C65.8443 74.8765 65.8395 74.9121 65.8372 74.9215C65.8135 75.0399 66.0857 75.3357 66.2964 75.4636C66.2833 75.2677 66.2097 75.0808 66.0857 74.9286C66.0454 74.8966 65.9951 74.8798 65.9437 74.8813V74.8765Z" fill="#F0653A"/>
<path d="M68.2569 75.5462H66.5195L66.4863 71.5176H68.2261L68.2569 75.5462Z" fill="#FFC3BD"/>
<path d="M66.5338 75.3457H68.4274C68.4613 75.3452 68.4943 75.3569 68.5203 75.3786C68.5464 75.4003 68.5638 75.4306 68.5694 75.4641L68.8606 77.0097C68.8672 77.0478 68.8653 77.0868 68.8551 77.1241C68.8449 77.1614 68.8266 77.1959 68.8015 77.2253C68.7764 77.2547 68.7452 77.2782 68.71 77.2941C68.6748 77.31 68.6365 77.318 68.5978 77.3174C67.9138 77.3174 66.9244 77.2677 66.0651 77.2677C65.0568 77.2677 64.1857 77.3221 63.0046 77.3221C62.2945 77.3221 62.1193 76.6002 62.4199 76.5339C63.7904 76.2381 64.9029 76.2049 66.103 75.4806C66.2317 75.3974 66.3806 75.3508 66.5338 75.3457Z" fill="#263238"/>
<path opacity="0.2" d="M66.4883 71.5195L66.5025 73.5954H68.2422L68.228 71.5195H66.4883Z" fill="black"/>
<path d="M63.7742 31.3145C63.7742 31.3145 63.0641 44.3165 63.0783 49.6186C63.0783 55.1337 65.8714 73.194 65.8714 73.194H68.816C68.816 73.194 68.0491 55.4556 68.3804 50.0446C68.7331 44.1271 70.4421 31.3192 70.4421 31.3192L63.7742 31.3145Z" fill="#F0653A"/>
<path d="M65.3448 72.0195C65.3306 72.0195 65.4655 73.2433 65.4655 73.2433H69.0492L69.1865 72.1521L65.3448 72.0195Z" fill="#263238"/>
<path d="M64.407 16.2858C64.407 16.2858 61.4435 23.7727 62.7335 36.7131H73.5555C73.6691 35.2929 72.5376 22.9229 74.152 16.1959C73.128 15.9976 72.0922 15.8664 71.0512 15.8029C69.7346 15.7271 68.4148 15.7271 67.0982 15.8029C66.19 15.8943 65.2903 16.0558 64.407 16.2858Z" fill="#263238"/>
<path opacity="0.2" d="M62.8748 23.0595C62.7139 24.2431 62.5813 25.5946 62.4961 27.0835C64.598 25.152 65.3176 20.3398 65.3176 20.3398L62.8748 23.0595Z" fill="black"/>
<path d="M65.524 19.8469C65.0979 20.9546 64.6671 22.0222 64.1937 23.0944C63.7203 24.1667 63.2304 25.2247 62.6789 26.2851L62.4635 26.6804L62.3546 26.8793C62.3096 26.9597 62.3143 26.9645 62.1913 27.1704C61.979 27.5042 61.6849 27.778 61.3368 27.9657C61.0489 28.1171 60.7348 28.2119 60.4113 28.245C59.9666 28.2858 59.5182 28.2497 59.0857 28.1385C58.7438 28.0539 58.4084 27.9447 58.0821 27.8119C57.4965 27.5694 56.9293 27.2846 56.385 26.9597C56.1175 26.8059 55.8619 26.6402 55.6086 26.4863C55.3553 26.3325 55.1257 26.136 54.8535 25.9467L56.1317 23.9868C57.0489 24.4922 58.0118 24.9099 59.0076 25.2342C59.219 25.2995 59.435 25.3486 59.6538 25.3809C59.7787 25.4075 59.9077 25.4075 60.0325 25.3809C60.0467 25.3809 60.0018 25.3667 59.9237 25.407C59.8285 25.4555 59.7471 25.5271 59.687 25.6153C59.6372 25.6981 59.7012 25.575 59.7225 25.5277L59.8077 25.3407L59.9781 24.9691C60.4278 23.9655 60.8444 22.9264 61.2492 21.892C61.6539 20.8576 62.0469 19.7782 62.409 18.7344L65.524 19.8469Z" fill="#263238"/>
<path d="M66.6981 17.0693C67.252 18.6173 63.3322 24.8496 63.3322 24.8496L61.0078 22.5465C61.0078 22.5465 61.6019 20.589 62.3854 18.2315C63.1571 15.9142 66.1703 15.5899 66.6981 17.0693Z" fill="#263238"/>
</svg>
