<svg width="87" height="30" viewBox="0 0 87 30" fill="none" xmlns="http://www.w3.org/2000/svg">
<path fill-rule="evenodd" clip-rule="evenodd" d="M19.1993 23.198C12.2816 24.3442 8.39206 20.3126 7.67583 16.4995C6.9663 12.7208 9.1525 7.68348 16.0702 6.53762C19.5838 5.95601 22.0862 7.20124 22.0862 7.20124C22.116 7.21569 22.1489 7.22365 22.1824 7.22452C22.2159 7.22538 22.2492 7.21915 22.2799 7.20626C22.3105 7.19338 22.3376 7.17418 22.3592 7.1501C22.3808 7.12601 22.3964 7.09766 22.4047 7.06716L24.1478 1.56802C24.1673 1.50038 24.1619 1.4285 24.1324 1.36413C24.1028 1.29975 24.0509 1.24668 23.9851 1.21357C23.9851 1.21357 20.3667 -0.725468 13.8151 0.358762C5.25169 1.77656 -1.30691 9.66403 0.222282 17.8043C1.74477 25.9114 10.8033 31.1419 19.3314 29.7301C25.883 28.6454 28.5756 25.6603 28.5756 25.6603C28.6249 25.6079 28.654 25.5415 28.6582 25.4717C28.6624 25.4019 28.6415 25.3328 28.5989 25.2754L24.9591 20.6676C24.9401 20.6417 24.9151 20.6202 24.886 20.6046C24.8569 20.5889 24.8244 20.5797 24.791 20.5774C24.7575 20.5751 24.724 20.5799 24.6928 20.5914C24.6616 20.603 24.6336 20.6209 24.6108 20.6439C24.6108 20.6439 22.7129 22.6174 19.1993 23.198Z" fill="white"/>
<path fill-rule="evenodd" clip-rule="evenodd" d="M19.1993 23.198C12.2816 24.3442 8.39206 20.3126 7.67583 16.4995C6.9663 12.7208 9.1525 7.68348 16.0702 6.53762C19.5838 5.95601 22.0862 7.20124 22.0862 7.20124C22.116 7.21569 22.1489 7.22365 22.1824 7.22452C22.2159 7.22538 22.2492 7.21915 22.2799 7.20626C22.3105 7.19338 22.3376 7.17418 22.3592 7.1501C22.3808 7.12601 22.3964 7.09766 22.4047 7.06716L24.1478 1.56802C24.1673 1.50038 24.1619 1.4285 24.1324 1.36413C24.1028 1.29975 24.0509 1.24668 23.9851 1.21357C23.9851 1.21357 20.3667 -0.725468 13.8151 0.358762C5.25169 1.77656 -1.30691 9.66403 0.222282 17.8043C1.74477 25.9114 10.8033 31.1419 19.3314 29.7301C25.883 28.6454 28.5756 25.6603 28.5756 25.6603C28.6249 25.6079 28.654 25.5415 28.6582 25.4717C28.6624 25.4019 28.6415 25.3328 28.5989 25.2754L24.9591 20.6676C24.9401 20.6417 24.9151 20.6202 24.886 20.6046C24.8569 20.5889 24.8244 20.5797 24.791 20.5774C24.7575 20.5751 24.724 20.5799 24.6928 20.5914C24.6616 20.603 24.6336 20.6209 24.6108 20.6439C24.6108 20.6439 22.7129 22.6174 19.1993 23.198Z" fill="white"/>
<path fill-rule="evenodd" clip-rule="evenodd" d="M19.1993 23.198C12.2816 24.3442 8.39206 20.3126 7.67583 16.4995C6.9663 12.7208 9.1525 7.68348 16.0702 6.53762C19.5838 5.95601 22.0862 7.20124 22.0862 7.20124C22.116 7.21569 22.1489 7.22365 22.1824 7.22452C22.2159 7.22538 22.2492 7.21915 22.2799 7.20626C22.3105 7.19338 22.3376 7.17418 22.3592 7.1501C22.3808 7.12601 22.3964 7.09766 22.4047 7.06716L24.1478 1.56802C24.1673 1.50038 24.1619 1.4285 24.1324 1.36413C24.1028 1.29975 24.0509 1.24668 23.9851 1.21357C23.9851 1.21357 20.3667 -0.725468 13.8151 0.358762C5.25169 1.77656 -1.30691 9.66403 0.222282 17.8043C1.74477 25.9114 10.8033 31.1419 19.3314 29.7301C25.883 28.6454 28.5756 25.6603 28.5756 25.6603C28.6249 25.6079 28.654 25.5415 28.6582 25.4717C28.6624 25.4019 28.6415 25.3328 28.5989 25.2754L24.9591 20.6676C24.9401 20.6417 24.9151 20.6202 24.886 20.6046C24.8569 20.5889 24.8244 20.5797 24.791 20.5774C24.7575 20.5751 24.724 20.5799 24.6928 20.5914C24.6616 20.603 24.6336 20.6209 24.6108 20.6439C24.6108 20.6439 22.7129 22.6174 19.1993 23.198Z" fill="white"/>
<path fill-rule="evenodd" clip-rule="evenodd" d="M19.1993 23.198C12.2816 24.3442 8.39206 20.3126 7.67583 16.4995C6.9663 12.7208 9.1525 7.68348 16.0702 6.53762C19.5838 5.95601 22.0862 7.20124 22.0862 7.20124C22.116 7.21569 22.1489 7.22365 22.1824 7.22452C22.2159 7.22538 22.2492 7.21915 22.2799 7.20626C22.3105 7.19338 22.3376 7.17418 22.3592 7.1501C22.3808 7.12601 22.3964 7.09766 22.4047 7.06716L24.1478 1.56802C24.1673 1.50038 24.1619 1.4285 24.1324 1.36413C24.1028 1.29975 24.0509 1.24668 23.9851 1.21357C23.9851 1.21357 20.3667 -0.725468 13.8151 0.358762C5.25169 1.77656 -1.30691 9.66403 0.222282 17.8043C1.74477 25.9114 10.8033 31.1419 19.3314 29.7301C25.883 28.6454 28.5756 25.6603 28.5756 25.6603C28.6249 25.6079 28.654 25.5415 28.6582 25.4717C28.6624 25.4019 28.6415 25.3328 28.5989 25.2754L24.9591 20.6676C24.9401 20.6417 24.9151 20.6202 24.886 20.6046C24.8569 20.5889 24.8244 20.5797 24.791 20.5774C24.7575 20.5751 24.724 20.5799 24.6928 20.5914C24.6616 20.603 24.6336 20.6209 24.6108 20.6439C24.6108 20.6439 22.7129 22.6174 19.1993 23.198Z" fill="white"/>
<path fill-rule="evenodd" clip-rule="evenodd" d="M19.1993 23.198C12.2816 24.3442 8.39206 20.3126 7.67583 16.4995C6.9663 12.7208 9.1525 7.68348 16.0702 6.53762C19.5838 5.95601 22.0862 7.20124 22.0862 7.20124C22.116 7.21569 22.1489 7.22365 22.1824 7.22452C22.2159 7.22538 22.2492 7.21915 22.2799 7.20626C22.3105 7.19338 22.3376 7.17418 22.3592 7.1501C22.3808 7.12601 22.3964 7.09766 22.4047 7.06716L24.1478 1.56802C24.1673 1.50038 24.1619 1.4285 24.1324 1.36413C24.1028 1.29975 24.0509 1.24668 23.9851 1.21357C23.9851 1.21357 20.3667 -0.725468 13.8151 0.358762C5.25169 1.77656 -1.30691 9.66403 0.222282 17.8043C1.74477 25.9114 10.8033 31.1419 19.3314 29.7301C25.883 28.6454 28.5756 25.6603 28.5756 25.6603C28.6249 25.6079 28.654 25.5415 28.6582 25.4717C28.6624 25.4019 28.6415 25.3328 28.5989 25.2754L24.9591 20.6676C24.9401 20.6417 24.9151 20.6202 24.886 20.6046C24.8569 20.5889 24.8244 20.5797 24.791 20.5774C24.7575 20.5751 24.724 20.5799 24.6928 20.5914C24.6616 20.603 24.6336 20.6209 24.6108 20.6439C24.6108 20.6439 22.7129 22.6174 19.1993 23.198Z" fill="white"/>
<path d="M2.20908 6.06905C2.21363 6.09421 2.26267 6.05446 2.34305 5.96289C2.25222 6.01949 2.20666 6.05698 2.20908 6.06905Z" fill="#61B8F5"/>
<path d="M18.5128 26.3124C22.0808 27.5332 25.0435 27.5051 26.159 27.4356C27.8278 26.4918 28.5775 25.6616 28.5775 25.6616C28.6268 25.6092 28.6558 25.5428 28.6601 25.473C28.6643 25.4032 28.6434 25.3341 28.6008 25.2767L24.9597 20.6689C24.9406 20.643 24.9156 20.6214 24.8865 20.6058C24.8574 20.5902 24.8249 20.5809 24.7915 20.5787C24.7581 20.5764 24.7246 20.5812 24.6934 20.5927C24.6622 20.6042 24.6341 20.6222 24.6113 20.6452C24.6113 20.6452 22.7134 22.6187 19.1987 23.2003C16.5544 23.6381 14.3529 23.3193 12.6016 22.5463C14.2064 24.245 16.2386 25.5397 18.5128 26.3124Z" fill="#0E73B9"/>
<path d="M8.56445 18.916C8.57356 21.9637 8.77426 26.5542 9.81149 28.6645C12.7651 29.8428 16.0861 30.2672 19.3304 29.7301C22.4271 29.2175 24.6626 28.2801 26.1575 27.4344C25.042 27.5038 22.0793 27.532 18.5113 26.3112C16.2373 25.538 14.2055 24.243 12.6011 22.544C10.7477 21.7255 9.39885 20.397 8.56445 18.916Z" fill="#1894EA"/>
<path d="M7.67625 16.5001C7.27915 14.3857 7.78906 11.8771 9.52698 9.87695C6.99379 10.6256 3.26259 12.6555 1.31326 15.7849C0.964363 16.351 0.577934 16.8961 0.15625 17.4168C0.176436 17.5461 0.198586 17.6754 0.222701 17.8049C1.16588 22.8279 5.00238 26.7457 9.81288 28.6651C8.77565 26.5547 8.57495 21.9642 8.56585 18.9166C8.13756 18.1593 7.83744 17.344 7.67625 16.5001Z" fill="#3AA5F0"/>
<path d="M9.52627 9.87811C10.8928 8.30384 13.023 7.04427 16.0699 6.53989C18.7877 6.09009 20.9002 6.73309 21.7177 7.04754C20.5018 6.39977 17.2869 4.91606 12.4919 4.36941C9.15221 3.9888 6.42395 4.47784 4.61851 5.02876C1.29138 8.2822 -0.568996 12.7925 0.155539 17.4179C0.577223 16.8972 0.963653 16.3522 1.31255 15.786C3.26188 12.6566 6.99308 10.6268 9.52627 9.87811Z" fill="#5FB5F1"/>
<path d="M12.4926 4.36759C17.2875 4.91423 20.5024 6.39794 21.7183 7.04571C21.9576 7.13753 22.0865 7.20168 22.0865 7.20168C22.1163 7.21613 22.1492 7.22409 22.1827 7.22496C22.2163 7.22583 22.2496 7.21959 22.2802 7.2067C22.3108 7.19382 22.3379 7.17462 22.3596 7.15054C22.3812 7.12646 22.3967 7.09811 22.4051 7.0676L24.1481 1.56846C24.1677 1.50082 24.1623 1.42894 24.1327 1.36457C24.1032 1.30019 24.0513 1.24712 23.9855 1.21401C23.9855 1.21401 20.3671 -0.72553 13.8154 0.358701C10.2587 0.947607 7.0473 2.65194 4.61914 5.02693C6.42458 4.47601 9.15285 3.98698 12.4926 4.36759Z" fill="#A1D5FA"/>
<path fill-rule="evenodd" clip-rule="evenodd" d="M80.1812 11.0391C75.6167 11.0391 72.6075 13.016 72.6075 16.4757C72.6075 19.0127 74.3657 20.1989 76.1239 21.0885C78.0849 22.077 79.9783 22.1759 79.9783 23.395C79.9783 24.5153 78.964 24.6141 78.1187 24.6141C76.5072 24.6141 74.5884 23.2549 74.0029 22.8095C73.9892 22.7991 73.8223 22.6701 73.712 22.8547C73.0954 23.8868 71.9589 25.7343 71.5457 26.4049C71.504 26.4725 71.354 26.6569 71.5932 26.8234C72.2874 27.3068 74.5876 28.9304 78.0849 28.9304C81.635 28.9304 86.301 28.1397 86.301 23.1643C86.301 19.7047 83.3256 18.4526 81.0264 17.7607C79.5388 17.2994 78.3216 17.0358 78.3216 16.1462C78.3216 15.3554 78.8625 15.1248 80.1812 15.1248C81.582 15.1248 82.9996 15.7095 83.6086 15.9911C83.6842 16.0261 83.9656 16.2121 84.1346 15.9814C84.8102 15.0597 85.6038 13.1227 85.9062 12.5333C85.9328 12.4814 85.9604 12.357 85.8445 12.2813C85.2908 11.9196 83.0409 11.0391 80.1812 11.0391Z" fill="#61B8F5"/>
<path fill-rule="evenodd" clip-rule="evenodd" d="M32.2031 12.1919C32.2031 11.8281 32.5061 11.5332 32.8794 11.5332H37.5114C37.8849 11.5332 38.1877 11.8284 38.1877 12.1919V27.7774C38.1877 28.1412 37.8847 28.4361 37.5114 28.4361H32.8794C32.5059 28.4361 32.2031 28.1409 32.2031 27.7774V12.1919Z" fill="#1998F0"/>
<path fill-rule="evenodd" clip-rule="evenodd" d="M35.2787 1.08789C37.2397 1.08789 38.8288 2.6365 38.8288 4.54755C38.8288 6.4586 37.2397 8.00721 35.2787 8.00721C33.3176 8.00721 31.7285 6.4586 31.7285 4.54755C31.7285 2.6365 33.3176 1.08789 35.2787 1.08789Z" fill="#1998F0"/>
<path fill-rule="evenodd" clip-rule="evenodd" d="M47.2811 12.8877C46.9452 12.1569 46.0064 11.5645 45.1854 11.5645H41.0599C40.2384 11.5645 39.8872 12.1365 40.2752 12.8418L48.5511 27.8867C48.7275 28.2074 49.1738 28.4674 49.5473 28.4674H52.251C52.6248 28.4674 53.0711 28.2069 53.2472 27.8867L61.5232 12.8418C61.9113 12.1364 61.5595 11.5645 60.7385 11.5645H56.6129C55.7915 11.5645 54.8531 12.157 54.5172 12.8877L50.8992 20.7573L47.2811 12.8877Z" fill="#31A3F2"/>
<path fill-rule="evenodd" clip-rule="evenodd" d="M50.7621 20.4629L50.8973 20.7594L50.5254 21.4184L50.7621 20.4629Z" fill="#269AED"/>
<path fill-rule="evenodd" clip-rule="evenodd" d="M63.5801 12.1919C63.5801 11.8281 63.883 11.5332 64.2564 11.5332H68.8883C69.2618 11.5332 69.5646 11.8284 69.5646 12.1919V27.7774C69.5646 28.1412 69.2617 28.4361 68.8883 28.4361H64.2564C63.8829 28.4361 63.5801 28.1409 63.5801 27.7774V12.1919Z" fill="#49ADF3"/>
<path fill-rule="evenodd" clip-rule="evenodd" d="M66.6576 1.08789C68.6186 1.08789 70.2077 2.6365 70.2077 4.54755C70.2077 6.4586 68.6186 8.00721 66.6576 8.00721C64.6965 8.00721 63.1074 6.4586 63.1074 4.54755C63.1074 2.6365 64.6965 1.08789 66.6576 1.08789Z" fill="#49ADF3"/>
</svg>
