<?xml version="1.0" encoding="UTF-8"?>
<svg width="20px" height="20px" viewBox="0 0 20 20" version="1.1" xmlns="http://www.w3.org/2000/svg" xmlns:xlink="http://www.w3.org/1999/xlink">
    <!-- Generator: Sketch 56 (81588) - https://sketch.com -->
    <title>Combined Shape</title>
    <desc>Created with Sketch.</desc>
    <g id="Admin" stroke="none" stroke-width="1" fill="none" fill-rule="evenodd">
        <g id="Create-New-Stack" transform="translate(-793.000000, -570.000000)" fill="#606060" fill-rule="nonzero">
            <g id="Form-bg" transform="translate(220.000000, 140.000000)">
                <g id="form-[30v]" transform="translate(0.000000, 20.000000)">
                    <g id="Input/multiple-[6v]" transform="translate(20.000000, 247.000000)">
                        <g id="Fields-[10v]" transform="translate(0.000000, 25.000000)">
                            <g id="Remove" transform="translate(0.000000, 138.000000)">
                                <path d="M565.173792,10 L572.543708,17.3476498 C572.840257,17.643303 573,18.0315003 573,18.4463681 C573,18.8612359 572.840257,19.2494332 572.543708,19.5450864 C571.935318,20.1516379 570.948002,20.1516379 570.339612,19.5450864 L563,12.227648 L555.660388,19.5450864 C555.051998,20.1516379 554.064682,20.1516379 553.456292,19.5450864 C552.847903,18.9385349 552.847903,17.9542013 553.456292,17.3476498 L560.826208,10 L553.456292,2.65235015 C552.847903,2.04579866 552.847903,1.0614651 553.456292,0.454913616 C554.064682,-0.151637872 555.051998,-0.151637872 555.660388,0.454913616 L563,7.77235199 L570.339612,0.454913616 C570.948002,-0.151637872 571.935318,-0.151637872 572.543708,0.454913616 C572.840257,0.750566804 573,1.1387641 573,1.55363188 C573,1.96849967 572.840257,2.35669696 572.543708,2.65235015 L565.173792,10 Z" id="Combined-Shape"></path>
                            </g>
                        </g>
                    </g>
                </g>
            </g>
        </g>
    </g>
</svg>