<svg width="12" height="12" viewBox="0 0 12 12" fill="none" xmlns="http://www.w3.org/2000/svg">
<path fill-rule="evenodd" clip-rule="evenodd" d="M6 0C2.6916 0 0 2.69164 0 6.00004C0 9.30844 2.6916 12 6 12C9.3084 12 12 9.30844 12 6.00004C12 2.69164 9.3084 0 6 0ZM6 10.9091C3.29309 10.9091 1.09091 8.70691 1.09091 6.00004C1.09091 3.29316 3.29309 1.09091 6 1.09091C8.70691 1.09091 10.9091 3.29316 10.9091 6.00004C10.9091 8.70691 8.70687 10.9091 6 10.9091ZM5.99764 2.5459C5.59669 2.5459 5.27051 2.8723 5.27051 3.2735C5.27051 3.67433 5.59669 4.00044 5.99764 4.00044C6.39858 4.00044 6.72476 3.67433 6.72476 3.2735C6.72476 2.8723 6.39858 2.5459 5.99764 2.5459ZM5.45508 5.63725C5.45508 5.33602 5.6993 5.0918 6.00053 5.0918C6.30177 5.0918 6.54599 5.33602 6.54599 5.63725V8.90998C6.54599 9.21122 6.30177 9.45543 6.00053 9.45543C5.6993 9.45543 5.45508 9.21122 5.45508 8.90998V5.63725Z" fill="#748094"/>
</svg>
