<svg width="24" height="24" viewBox="0 0 24 24" fill="none" xmlns="http://www.w3.org/2000/svg">
<path fill-rule="evenodd" clip-rule="evenodd" d="M0 12C0 5.3828 5.3828 0 12 0C18.6172 0 24 5.38373 24 12C24 18.6163 18.6172 24 12 24C5.3828 24 0 18.6172 0 12ZM1.85902 12C1.85902 17.592 6.40898 22.141 12 22.141C17.592 22.141 22.141 17.592 22.141 12C22.141 6.40805 17.591 1.85902 12 1.85902C6.40898 1.85902 1.85902 6.40805 1.85902 12ZM12.9305 10.9874H16.6485C17.1625 10.9874 17.578 11.4038 17.578 11.9169C17.578 12.43 17.1625 12.8465 16.6485 12.8465H12.9305V16.5645C12.9305 17.0776 12.515 17.494 12.0009 17.494C11.4869 17.494 11.0714 17.0776 11.0714 16.5645V12.8465H7.35336C6.83933 12.8465 6.42383 12.43 6.42383 11.9169C6.42383 11.4038 6.83933 10.9874 7.35336 10.9874H11.0714V7.26937C11.0714 6.75628 11.4869 6.33984 12.0009 6.33984C12.515 6.33984 12.9305 6.75628 12.9305 7.26937V10.9874Z" fill="#D5DBE2"/>
</svg>
