<svg width="16" height="16" viewBox="0 0 16 16" fill="none" xmlns="http://www.w3.org/2000/svg">
<path fill-rule="evenodd" clip-rule="evenodd" d="M8 0C3.58876 0 0 3.5888 0 8C0 12.4112 3.58876 16 8 16C12.4112 16 16 12.4112 16 8C16 3.5888 12.4112 0 8 0ZM8 14.8293C4.23434 14.8293 1.17073 11.7657 1.17073 8C1.17073 4.23434 4.23434 1.17073 8 1.17073C11.7657 1.17073 14.8293 4.23434 14.8293 8C14.8293 11.7657 11.7657 14.8293 8 14.8293ZM8.96566 7.03286C8.12878 6.19614 6.76714 6.19614 5.9303 7.0329L4.27461 8.68859C3.43781 9.52542 3.43781 10.8871 4.27461 11.7239C5.11332 12.5627 6.4711 12.5629 7.31001 11.7239L7.86189 11.1721C8.0905 10.9435 8.0905 10.5729 7.86189 10.3442C7.63329 10.1156 7.26267 10.1156 7.03403 10.3442L6.48214 10.8961C6.10177 11.2765 5.48285 11.2765 5.10243 10.8961C4.72202 10.5157 4.72202 9.89678 5.10243 9.51641L6.75813 7.86072C7.1385 7.48043 7.75747 7.48031 8.13784 7.86076C8.36644 8.08933 8.7371 8.08929 8.96566 7.86072C9.19427 7.63212 9.19423 7.2615 8.96566 7.03286ZM8.6901 4.27437C9.52901 3.43542 10.8867 3.43562 11.7255 4.27437C12.5623 5.11121 12.5623 6.47289 11.7255 7.30973L10.0698 8.96541C9.23289 9.80225 7.87137 9.80225 7.03441 8.96545C6.80584 8.73681 6.80581 8.36619 7.03441 8.13759C7.26298 7.90902 7.63363 7.90898 7.86223 8.13755C8.24261 8.51796 8.86157 8.51792 9.24194 8.13759L10.8976 6.4819C11.278 6.10153 11.278 5.48256 10.8976 5.10219C10.5173 4.72182 9.89833 4.72186 9.51792 5.10219L8.96604 5.65408C8.73743 5.88268 8.36682 5.88272 8.13822 5.65408C7.90961 5.42543 7.90961 5.05482 8.13822 4.82625L8.6901 4.27437Z" fill="#172B4D" fill-opacity="0.6"/>
</svg>
