<svg width="24" height="24" viewBox="0 0 24 24" fill="none" xmlns="http://www.w3.org/2000/svg">
<path fill-rule="evenodd" clip-rule="evenodd" d="M0 12C0 5.3828 5.3828 0 12 0C18.6172 0 24 5.38373 24 12C24 18.6163 18.6172 24 12 24C5.3828 24 0 18.6172 0 12ZM1.85902 12C1.85902 17.592 6.40898 22.141 12 22.141C17.591 22.141 22.141 17.592 22.141 12C22.141 6.40805 17.592 1.85902 12 1.85902C6.40898 1.85902 1.85902 6.40805 1.85902 12ZM16.1933 7.89011C16.539 7.50996 17.1274 7.483 17.5057 7.82692C17.8859 8.17178 17.9138 8.75922 17.5689 9.14036L11.238 16.1117C11.066 16.3013 10.8243 16.411 10.5678 16.4166C10.5622 16.4156 10.5557 16.4156 10.5502 16.4156H10.5501C10.301 16.4156 10.0631 16.3162 9.88741 16.1377L6.45845 12.652C6.09779 12.2858 6.10337 11.6974 6.4696 11.3377C6.8349 10.9771 7.42234 10.9826 7.78393 11.3489L10.5232 14.1337L16.1933 7.89011Z" fill="#0F73B9"/>
</svg>
